<svg width="43" height="48" viewBox="0 0 43 48" fill="none" xmlns="http://www.w3.org/2000/svg">
<path d="M21.7073 0L25.7629 36.2081L21.7073 35.237L17.9025 36.2081L21.7073 0Z" fill="#3E5C01"/>
<path d="M39.7204 13.6171L24.1961 28.6382L22.8218 22.7322L39.7204 13.6171Z" fill="#3E5C01"/>
<path d="M2.06291 22.4052L23.2171 28.7352L18.2825 32.5687L2.06291 22.4052Z" fill="#3E5C01"/>
<path d="M7.13207 13.4141L22.7731 23.4655L20.7587 28.9456L7.13207 13.4141Z" fill="#3E5C01"/>
<path d="M41.5162 22.0329L24.0458 33.6007L24.8751 27.6418L41.5162 22.0329Z" fill="#3E5C01"/>
<path d="M6.80249 30.4649L18.052 31.8475L19.2339 34.9764L6.80249 30.4649Z" fill="#3E5C01"/>
<path d="M36.4198 31.1174L25.7008 34.6364L23.1708 32.3357L36.4198 31.1174Z" fill="#3E5C01"/>
<rect width="1.7561" height="16.0925" transform="matrix(-1 0 0 1 22.5853 31.9075)" fill="#3E5C01"/>
</svg>
